<svg id="svg" xmlns="http://www.w3.org/2000/svg" xmlns:xlink="http://www.w3.org/1999/xlink" width="400" height="92.70833333333334" viewBox="0, 0, 400,92.70833333333334"><g id="svgg"><path id="path0" d="M31.126 32.014 C 28.856 32.684,28.737 32.817,20.361 44.129 C 13.693 53.133,13.320 53.669,13.196 54.438 C 12.855 56.534,15.398 58.265,17.136 57.119 C 17.452 56.911,20.765 52.669,24.498 47.693 C 32.346 37.235,32.199 37.405,33.321 37.405 C 34.460 37.405,34.532 37.485,40.154 45.000 C 49.995 58.153,49.435 57.496,50.809 57.499 C 53.646 57.504,54.267 54.838,52.096 51.980 C 51.661 51.407,48.397 47.036,44.843 42.266 C 40.096 35.895,38.139 33.428,37.467 32.965 C 35.677 31.734,33.288 31.375,31.126 32.014 M55.625 33.149 C 53.972 33.803,53.506 35.769,54.628 37.361 C 59.149 43.779,69.250 56.891,70.113 57.463 C 73.321 59.588,77.329 58.982,79.845 55.991 C 80.724 54.946,81.563 53.828,87.513 45.758 C 88.938 43.826,90.982 41.063,92.054 39.618 C 94.568 36.231,94.707 35.866,94.027 34.434 C 93.411 33.137,91.839 32.562,90.533 33.157 C 90.217 33.301,87.144 37.200,82.870 42.878 C 78.897 48.155,75.456 52.532,75.106 52.750 C 73.738 53.604,73.097 53.142,70.155 49.186 C 60.853 36.679,58.327 33.398,57.827 33.170 C 57.171 32.871,56.348 32.863,55.625 33.149 M101.498 33.339 C 100.211 34.123,100.208 34.149,100.208 45.208 C 100.208 56.280,100.204 56.244,101.511 57.052 C 102.896 57.907,104.592 57.426,105.277 55.983 C 105.805 54.870,105.805 35.547,105.277 34.434 C 104.600 33.008,102.866 32.505,101.498 33.339 M119.583 33.211 C 109.391 36.085,108.893 53.814,118.912 57.120 C 120.813 57.747,147.716 57.700,149.647 57.066 C 159.239 53.917,159.790 37.786,150.452 33.471 C 149.251 32.915,121.462 32.682,119.583 33.211 M199.167 33.215 C 195.615 34.203,193.024 37.135,191.422 41.979 C 189.804 46.874,192.923 54.480,197.464 56.716 L 198.845 57.396 215.131 57.453 C 231.377 57.510,231.420 57.509,232.635 57.059 C 238.650 54.837,238.623 45.186,232.596 42.931 C 230.863 42.283,208.586 42.256,207.322 42.901 C 205.850 43.652,205.470 45.467,206.508 46.786 C 207.397 47.917,207.394 47.917,219.540 47.917 L 230.761 47.917 231.191 48.385 C 232.082 49.355,231.898 51.305,230.865 51.858 C 230.270 52.176,201.675 52.170,200.521 51.851 C 195.466 50.457,194.713 41.655,199.426 39.044 L 200.521 38.438 217.813 38.333 C 234.622 38.232,235.123 38.218,235.791 37.814 C 237.499 36.781,237.489 34.372,235.771 33.325 C 234.935 32.815,200.971 32.713,199.167 33.215 M244.206 33.339 C 243.827 33.570,243.382 34.082,243.217 34.477 C 242.411 36.405,242.814 36.925,249.063 42.007 C 258.934 50.037,269.328 50.768,279.253 44.132 C 281.362 42.722,285.403 39.508,287.034 37.945 C 288.590 36.453,288.754 35.092,287.534 33.786 C 286.195 32.353,285.080 32.600,282.277 34.951 C 274.365 41.587,272.141 42.607,265.625 42.588 C 259.135 42.570,256.995 41.620,249.676 35.516 C 246.381 32.767,245.633 32.469,244.206 33.339 M295.708 33.212 C 294.267 33.844,293.763 35.855,294.718 37.164 C 295.604 38.380,294.842 38.333,313.928 38.333 C 326.579 38.333,331.583 38.399,331.959 38.571 C 333.327 39.194,333.367 41.704,332.017 42.214 C 331.767 42.309,324.297 42.435,315.417 42.495 L 299.271 42.604 298.096 43.181 C 295.083 44.661,294.293 46.347,294.203 51.490 C 294.118 56.340,294.634 57.500,296.875 57.500 C 298.951 57.500,299.583 56.257,299.583 52.178 L 299.583 49.135 300.192 48.526 L 300.801 47.917 307.769 47.917 C 319.821 47.917,322.107 48.696,333.908 56.823 C 335.447 57.883,337.045 57.630,337.925 56.188 C 339.063 54.321,338.022 52.971,332.553 49.227 L 330.835 48.051 332.324 47.673 C 339.422 45.870,340.497 36.902,333.999 33.703 L 332.613 33.021 314.484 32.975 C 299.572 32.936,296.240 32.979,295.708 33.212 M351.964 33.304 C 341.992 36.734,341.726 53.856,351.594 57.111 C 353.241 57.654,379.917 57.714,381.987 57.179 C 391.595 54.696,392.716 38.355,383.597 33.725 L 382.210 33.021 367.615 32.981 C 354.210 32.944,352.935 32.970,351.964 33.304 M148.784 39.015 C 153.683 41.543,153.014 50.345,147.808 51.863 C 146.252 52.317,121.126 52.073,120.164 51.595 C 115.244 49.148,115.623 40.409,120.729 38.589 C 121.146 38.441,125.711 38.361,134.409 38.350 L 147.464 38.333 148.784 39.015 M381.146 38.824 C 386.119 41.147,386.101 49.309,381.117 51.600 L 380.047 52.092 366.846 52.036 C 354.271 51.982,353.607 51.960,352.833 51.576 C 347.917 49.137,348.465 40.054,353.618 38.560 C 353.977 38.456,360.083 38.363,367.188 38.354 L 380.104 38.337 381.146 38.824 M164.537 42.959 C 162.750 43.995,162.716 46.410,164.474 47.497 C 165.531 48.150,182.847 48.148,183.919 47.495 C 185.643 46.444,185.559 43.959,183.766 42.951 C 182.515 42.248,165.752 42.255,164.537 42.959 M31.724 48.353 C 29.217 49.594,29.254 53.351,31.785 54.586 C 34.175 55.754,36.779 54.122,36.764 51.466 C 36.749 48.729,34.175 47.139,31.724 48.353 M264.189 51.573 C 261.416 52.777,261.454 56.857,264.249 58.025 C 267.268 59.286,270.184 56.191,268.756 53.241 C 267.941 51.557,265.923 50.820,264.189 51.573 " stroke="none" fill="#000000" fill-rule="evenodd"></path></g></svg>